<svg width="30" height="30" viewBox="0 0 30 30" fill="none" xmlns="http://www.w3.org/2000/svg">
<path fill-rule="evenodd" clip-rule="evenodd" d="M5 0C2.23858 0 0 2.23858 0 5V25C0 27.7614 2.23858 30 5 30H25C27.7614 30 30 27.7614 30 25V5C30 2.23858 27.7614 0 25 0H5ZM23.5666 8.80405C23.9751 8.24751 23.8551 7.46521 23.2985 7.05674C22.742 6.64827 21.9597 6.76831 21.5512 7.32485L12.5592 19.5765L8.55039 11.8685C8.23185 11.256 7.47712 11.0178 6.86464 11.3363C6.25217 11.6548 6.01389 12.4096 6.33242 13.0221L11.2687 22.5133L12.1961 24.2965L13.3854 22.6761L23.5666 8.80405Z" fill="#46CD9C"/>
</svg>
