<svg width="683" height="683" viewBox="0 0 683 683" fill="none" xmlns="http://www.w3.org/2000/svg">
<path d="M318.267 66.1333C289.733 71.3333 266.667 83.3333 245.6 104.267C222.267 127.333 208.933 157.6 206.933 191.333L206 206L192 206.8C184.267 207.333 175.6 208.4 172.667 209.333C148 216.8 125.733 239.333 119.333 263.467C116.533 274.267 96.9333 505.6 97.7333 518C98.8 531.333 103.067 543.733 110.667 555.2C120.8 570.267 133.467 579.867 151.6 586.4L162 590H340.667C510.4 590 519.733 589.867 527.333 587.6C538 584.267 551.333 577.2 558.8 570.667C572.667 558.8 583.6 536.8 584.933 518.133C585.6 507.733 566.4 275.733 563.867 265.333C560 248.8 546.267 229.333 531.333 219.467C519.067 211.2 508 207.733 491.333 206.8L476.667 206L475.733 191.333C473.733 157.6 460.267 127.2 437.067 104.4C424.933 92.4 417.467 86.6666 405.067 80C379.2 66.1333 346.8 60.9333 318.267 66.1333ZM359.733 108.667C374.533 111.6 392.667 120.8 403.6 131.067C421.867 148 431.733 169.067 432.933 193.6L433.733 206.667H341.333H248.933L249.733 193.6C251.467 160 270.4 131.333 300.667 116.667C320 107.067 338.933 104.533 359.733 108.667ZM206.667 298.533C206.667 347.2 206.667 347.6 209.733 352C216.267 361.6 225.067 364.667 235.467 360.667C239.733 359.067 242.533 356.8 245.067 352.933L248.667 347.467L249.067 298.4L249.467 249.333H341.333H433.2L433.6 298.267C434 346.133 434.133 347.467 436.933 352C441.2 358.933 449.467 363.2 456.933 362.267C463.733 361.6 468.667 358.4 473.067 352C476 347.6 476 347.2 476 298.4V249.067L487.733 249.6C498.133 250 500.4 250.533 506.133 254C513.333 258.533 520.533 268.133 522.533 275.733C524.533 283.867 542.933 514.267 542 518.933C539.6 529.867 529.2 542 519.2 545.467C511.467 548.267 171.2 548.267 163.467 545.467C152.8 541.733 142.267 528.933 140.667 517.733C140 513.467 157.2 294.933 159.333 279.6C160.4 272.4 165.733 262.4 170.933 258C178.533 251.6 184.933 249.333 196.4 249.333H206.667V298.533Z" fill="white"/>
</svg>
